<svg width="144" height="32" viewBox="0 0 144 32" fill="none" xmlns="http://www.w3.org/2000/svg">
<rect width="144" height="32" fill="#F5F5F5"/>
<g id="Home" clip-path="url(#clip0_0_1)">
<rect width="1920" height="7482" transform="translate(-767 -974)" fill="#142941"/>
<rect id="Rectangle 277" x="-113" y="-50" width="614" height="169" fill="#354C66"/>
<g id="Group 17836">
<g id="Group">
<path id="Vector" d="M0.656174 0.426025H20.2978V4.08262H12.5644V24.6955H8.32528V4.08262H0.623779L0.656174 0.426025ZM19.4568 7.12437H23.0814V10.5221H23.1457C23.2755 10.0368 23.5024 9.58366 23.8252 9.13068C24.1492 8.67758 24.5375 8.25699 25.0229 7.90098C25.4755 7.51267 25.9936 7.22144 26.5761 6.9949C27.1258 6.76846 27.7083 6.63899 28.2907 6.63899C28.7445 6.63899 29.0673 6.67138 29.2299 6.67138C29.3913 6.70367 29.5854 6.73606 29.7469 6.73606V10.4573C29.4884 10.3927 29.1971 10.3603 28.9059 10.328C28.6147 10.2956 28.3562 10.2632 28.0649 10.2632C27.417 10.2632 26.8029 10.3927 26.2205 10.6515C25.638 10.9104 25.1516 11.2987 24.6989 11.7841C24.2779 12.3019 23.9223 12.9166 23.6638 13.661C23.4042 14.4052 23.2755 15.279 23.2755 16.2497V24.5985H19.3922L19.4568 7.12437ZM47.5772 24.6955H43.7269V22.2361H43.6614C43.176 23.1422 42.4649 23.8217 41.5258 24.3719C40.5877 24.922 39.617 25.1809 38.6462 25.1809C36.348 25.1809 34.6661 24.6307 33.6299 23.4658C32.5948 22.3332 32.0767 20.5858 32.0767 18.2883V7.12437H35.9597V17.9C35.9597 19.4533 36.2509 20.5534 36.8661 21.1683C37.4486 21.8155 38.2906 22.1391 39.3574 22.1391C40.1667 22.1391 40.8462 22.0097 41.397 21.7508C41.9468 21.4919 42.3994 21.1683 42.7234 20.7476C43.079 20.327 43.3058 19.8092 43.4673 19.2268C43.6298 18.6443 43.6942 17.9971 43.6942 17.3175V7.12437H47.5772V24.6955ZM54.1467 19.0649C54.2754 20.1975 54.6964 20.9741 55.4403 21.4595C56.1842 21.9126 57.0906 22.1391 58.1268 22.1391C58.4824 22.1391 58.9034 22.1068 59.3561 22.042C59.8087 21.9773 60.2625 21.8802 60.6508 21.7185C61.0707 21.5566 61.3947 21.3302 61.6532 21.0065C61.9128 20.6829 62.0415 20.2946 62.0098 19.8092C61.9771 19.3239 61.8157 18.9032 61.459 18.5795C61.1035 18.256 60.6824 18.0295 60.1654 17.8029C59.6473 17.6088 59.0321 17.447 58.3526 17.3175C57.6731 17.1881 56.9935 17.0263 56.2824 16.8646C55.5701 16.7027 54.8579 16.5086 54.1783 16.2821C53.4988 16.0556 52.9164 15.7643 52.3666 15.3436C51.8485 14.9553 51.3959 14.47 51.1046 13.8551C50.7807 13.2403 50.6193 12.5283 50.6193 11.6224C50.6193 10.6515 50.845 9.87489 51.3304 9.22775C51.7842 8.58051 52.3983 8.06273 53.1105 7.67443C53.8228 7.28612 54.631 6.9949 55.5047 6.83314C56.3784 6.67138 57.2204 6.60659 57.997 6.60659C58.9034 6.60659 59.7771 6.70367 60.5854 6.89782C61.3947 7.09197 62.1713 7.3832 62.8181 7.83629C63.4976 8.25699 64.0484 8.83945 64.4684 9.51898C64.9221 10.1985 65.1806 11.0398 65.3104 12.0107H61.2649C61.0707 11.0722 60.6508 10.4573 60.0029 10.1338C59.3234 9.81021 58.5795 9.64834 57.7058 9.64834C57.4473 9.64834 57.0906 9.68074 56.735 9.71313C56.3467 9.77781 56.0228 9.8426 55.6672 9.97196C55.3433 10.1014 55.052 10.2956 54.8251 10.5221C54.5994 10.7486 54.4696 11.0722 54.4696 11.4605C54.4696 11.9459 54.631 12.3019 54.955 12.5931C55.2789 12.8843 55.6999 13.1109 56.2497 13.3373C56.7678 13.5315 57.3818 13.6933 58.0614 13.8227C58.7409 13.9522 59.4532 14.1139 60.1654 14.2758C60.8766 14.4376 61.5561 14.6317 62.2356 14.8583C62.9152 15.0848 63.5303 15.376 64.0485 15.7966C64.5655 16.185 65.0192 16.6704 65.3421 17.2529C65.666 17.8353 65.8274 18.5795 65.8274 19.4209C65.8274 20.4564 65.6017 21.3302 65.1163 22.0744C64.6309 22.7863 64.0157 23.4012 63.2718 23.8541C62.5269 24.3072 61.6532 24.6307 60.7479 24.8573C59.8087 25.0514 58.9034 25.1809 57.997 25.1809C56.8965 25.1809 55.8614 25.0514 54.9233 24.7926C53.9842 24.5337 53.1432 24.1454 52.4637 23.66C51.7842 23.1422 51.2333 22.5275 50.845 21.7508C50.4567 21.0065 50.231 20.1005 50.1982 19.0326H54.114V19.0649H54.1467ZM66.928 7.12437H69.873V1.81748H73.756V7.09197H77.2508V9.97196H73.756V19.3563C73.756 19.7768 73.7887 20.1005 73.8204 20.4241C73.8531 20.7153 73.9502 20.9741 74.0472 21.1683C74.177 21.3624 74.3712 21.5243 74.597 21.6214C74.8566 21.7185 75.1794 21.7831 75.6332 21.7831C75.8917 21.7831 76.1829 21.7831 76.4414 21.7508C76.701 21.7185 76.9923 21.6861 77.2508 21.6214V24.6307C76.8297 24.6955 76.4098 24.7278 75.9888 24.7602C75.5677 24.8249 75.1795 24.8249 74.7268 24.8249C73.6917 24.8249 72.8824 24.7278 72.2672 24.5337C71.6531 24.3395 71.1677 24.0483 70.811 23.6924C70.4555 23.3041 70.2286 22.851 70.0999 22.3009C69.9701 21.7508 69.9046 21.0712 69.873 20.3593V10.0044H66.928V7.05969V7.12437ZM79.9689 7.12437H83.625V9.51898H83.6905C84.2402 8.48343 84.9852 7.7715 85.956 7.31852C86.9267 6.86553 87.9618 6.63899 89.1267 6.63899C90.5185 6.63899 91.7151 6.86553 92.7513 7.3832C93.7864 7.86858 94.6273 8.51583 95.3069 9.38951C95.9864 10.2309 96.5045 11.2339 96.8285 12.3666C97.1513 13.4992 97.3455 14.7288 97.3455 15.9908C97.3455 17.1881 97.184 18.3207 96.8928 19.4209C96.5689 20.5212 96.1162 21.5243 95.501 22.3656C94.8869 23.207 94.1103 23.8865 93.1396 24.4043C92.1688 24.922 91.0683 25.1809 89.7735 25.1809C89.2238 25.1809 88.6414 25.1161 88.0905 25.019C87.5408 24.922 86.9911 24.7602 86.473 24.5337C85.9559 24.3072 85.4695 24.0159 85.0496 23.66C84.5958 23.3041 84.2402 22.8834 83.949 22.4303H83.8846V31.1997H80.0016V7.12437H79.9689ZM93.5279 15.9261C93.5279 15.1495 93.4308 14.3729 93.2039 13.6286C93.0098 12.8843 92.6858 12.2371 92.2659 11.6546C91.8449 11.0722 91.3268 10.6192 90.7443 10.2632C90.1302 9.90728 89.418 9.74542 88.6414 9.74542C87.0227 9.74542 85.7934 10.2956 84.9525 11.4282C84.1432 12.5607 83.7221 14.0817 83.7221 15.9585C83.7221 16.8646 83.8192 17.6735 84.0461 18.4178C84.2729 19.162 84.5642 19.8092 85.0168 20.3593C85.4379 20.9095 85.956 21.3302 86.57 21.6537C87.1852 21.9773 87.8648 22.1391 88.6741 22.1391C89.5794 22.1391 90.2916 21.9449 90.9068 21.589C91.5209 21.2331 92.0063 20.7476 92.4273 20.1975C92.8156 19.6151 93.1068 18.9678 93.2683 18.2236C93.4308 17.447 93.5279 16.7027 93.5279 15.9261ZM100.355 0.426025H104.239V4.08262H100.355V0.426025ZM100.355 7.12437H104.239V24.6955H100.355V7.12437ZM107.701 0.426025H111.584V24.6955H107.701V0.426025ZM123.427 25.1809C122.037 25.1809 120.775 24.9544 119.674 24.469C118.573 23.9836 117.668 23.3688 116.892 22.5598C116.147 21.7508 115.564 20.7476 115.176 19.6151C114.787 18.4825 114.561 17.2205 114.561 15.8937C114.561 14.567 114.755 13.3373 115.176 12.2048C115.564 11.0722 116.147 10.1014 116.892 9.26004C117.635 8.45114 118.573 7.8039 119.674 7.35092C120.775 6.89782 122.037 6.63899 123.427 6.63899C124.819 6.63899 126.081 6.86554 127.182 7.35092C128.281 7.8039 129.187 8.45114 129.964 9.26004C130.708 10.069 131.29 11.0722 131.679 12.2048C132.067 13.3373 132.294 14.567 132.294 15.8937C132.294 17.2529 132.1 18.4825 131.679 19.6151C131.259 20.7476 130.708 21.7185 129.964 22.5598C129.22 23.3688 128.281 24.0159 127.182 24.469C126.081 24.922 124.852 25.1809 123.427 25.1809ZM123.427 22.1068C124.269 22.1068 125.046 21.9126 125.66 21.5566C126.308 21.2007 126.793 20.7153 127.213 20.1329C127.634 19.5504 127.925 18.8708 128.12 18.1589C128.314 17.4146 128.411 16.6704 128.411 15.8937C128.411 15.1495 128.314 14.4052 128.12 13.661C127.925 12.9166 127.634 12.2695 127.213 11.687C126.793 11.1046 126.275 10.6515 125.66 10.2956C125.013 9.93968 124.269 9.74542 123.427 9.74542C122.586 9.74542 121.81 9.93968 121.194 10.2956C120.548 10.6515 120.062 11.1369 119.641 11.687C119.221 12.2695 118.929 12.9166 118.735 13.661C118.542 14.4052 118.445 15.1495 118.445 15.8937C118.445 16.6704 118.542 17.4146 118.735 18.1589C118.929 18.9032 119.221 19.5504 119.641 20.1329C120.062 20.7153 120.58 21.2007 121.194 21.5566C121.842 21.9449 122.586 22.1068 123.427 22.1068ZM133.459 7.12437H136.404V1.81748H140.287V7.09197H143.782V9.97196H140.287V19.3563C140.287 19.7768 140.32 20.1005 140.351 20.4241C140.384 20.7153 140.481 20.9741 140.578 21.1683C140.708 21.3624 140.902 21.5243 141.128 21.6214C141.387 21.7185 141.71 21.7831 142.164 21.7831C142.422 21.7831 142.714 21.7831 142.972 21.7508C143.232 21.7185 143.523 21.6861 143.782 21.6214V24.6307C143.361 24.6955 142.941 24.7278 142.52 24.7602C142.099 24.8249 141.71 24.8249 141.258 24.8249C140.222 24.8249 139.413 24.7278 138.798 24.5337C138.184 24.3395 137.698 24.0483 137.342 23.6924C136.986 23.3041 136.759 22.851 136.631 22.3009C136.501 21.7508 136.436 21.0712 136.404 20.3593V10.0044H133.459V7.05969V7.12437Z" fill="#D9ECFF"/>
</g>
</g>
<g id="Group_2">
<g id="Group_3" opacity="0.8">
</g>
</g>
</g>
<defs>
<clipPath id="clip0_0_1">
<rect width="1920" height="7482" fill="white" transform="translate(-767 -974)"/>
</clipPath>
</defs>
</svg>
